<?xml version="1.0" encoding="utf-8" standalone="no"?>
<!DOCTYPE svg PUBLIC "-//W3C//DTD SVG 1.1//EN"
  "http://www.w3.org/Graphics/SVG/1.1/DTD/svg11.dtd">
<svg xmlns:xlink="http://www.w3.org/1999/xlink" width="432pt" height="288pt" viewBox="0 0 432 288" xmlns="http://www.w3.org/2000/svg" version="1.1">
 <metadata>
  <rdf:RDF xmlns:dc="http://purl.org/dc/elements/1.1/" xmlns:cc="http://creativecommons.org/ns#" xmlns:rdf="http://www.w3.org/1999/02/22-rdf-syntax-ns#">
   <cc:Work>
    <dc:type rdf:resource="http://purl.org/dc/dcmitype/StillImage"/>
    <dc:date>2022-05-30T12:46:51.275278</dc:date>
    <dc:format>image/svg+xml</dc:format>
    <dc:creator>
     <cc:Agent>
      <dc:title>Matplotlib v3.5.2, https://matplotlib.org/</dc:title>
     </cc:Agent>
    </dc:creator>
   </cc:Work>
  </rdf:RDF>
 </metadata>
 <defs>
  <style type="text/css">*{stroke-linejoin: round; stroke-linecap: butt}</style>
 </defs>
 <g id="figure_1">
  <g id="patch_1">
   <path d="M 0 288 
L 432 288 
L 432 0 
L 0 0 
L 0 288 
z
" style="fill: none"/>
  </g>
  <g id="axes_1">
   <g id="patch_2">
    <path d="M 276.309091 198.189091 
L 276.309091 176.225455 
L 254.345455 176.225455 
L 254.345455 198.189091 
z
" clip-path="url(#p7b06dbb352)"/>
   </g>
   <g id="patch_3">
    <path d="M 188.454545 154.261818 
L 188.454545 132.298182 
L 166.490909 132.298182 
L 166.490909 154.261818 
z
" clip-path="url(#p7b06dbb352)"/>
   </g>
   <g id="patch_4">
    <path d="M 276.309091 154.261818 
L 276.309091 132.298182 
L 254.345455 132.298182 
L 254.345455 154.261818 
z
" clip-path="url(#p7b06dbb352)"/>
   </g>
   <g id="patch_5">
    <path d="M 188.454545 110.334545 
L 188.454545 88.370909 
L 166.490909 88.370909 
L 166.490909 110.334545 
z
" clip-path="url(#p7b06dbb352)"/>
   </g>
   <g id="patch_6">
    <path d="M 188.454545 242.116364 
L 188.454545 220.152727 
L 166.490909 220.152727 
L 166.490909 242.116364 
z
" clip-path="url(#p7b06dbb352)" style="fill: #0000ff"/>
   </g>
   <g id="patch_7">
    <path d="M 276.309091 242.116364 
L 276.309091 220.152727 
L 254.345455 220.152727 
L 254.345455 242.116364 
z
" clip-path="url(#p7b06dbb352)" style="fill: #0000ff"/>
   </g>
   <g id="patch_8">
    <path d="M 144.527273 176.225455 
L 144.527273 154.261818 
L 122.563636 154.261818 
L 122.563636 176.225455 
z
" clip-path="url(#p7b06dbb352)" style="fill: #0000ff"/>
   </g>
   <g id="patch_9">
    <path d="M 320.236364 176.225455 
L 320.236364 154.261818 
L 298.272727 154.261818 
L 298.272727 176.225455 
z
" clip-path="url(#p7b06dbb352)" style="fill: #0000ff"/>
   </g>
   <g id="patch_10">
    <path d="M 144.527273 66.407273 
L 144.527273 44.443636 
L 122.563636 44.443636 
L 122.563636 66.407273 
z
" clip-path="url(#p7b06dbb352)" style="fill: #0000ff"/>
   </g>
   <g id="patch_11">
    <path d="M 232.381818 66.407273 
L 232.381818 44.443636 
L 210.418182 44.443636 
L 210.418182 66.407273 
z
" clip-path="url(#p7b06dbb352)" style="fill: #0000ff"/>
   </g>
   <g id="patch_12">
    <path d="M 320.236364 66.407273 
L 320.236364 44.443636 
L 298.272727 44.443636 
L 298.272727 66.407273 
z
" clip-path="url(#p7b06dbb352)" style="fill: #0000ff"/>
   </g>
   <g id="patch_13">
    <path d="M 144.527273 242.116364 
L 144.527273 220.152727 
L 122.563636 220.152727 
L 122.563636 242.116364 
z
" clip-path="url(#p7b06dbb352)" style="fill: #ff0000"/>
   </g>
   <g id="patch_14">
    <path d="M 232.381818 242.116364 
L 232.381818 220.152727 
L 210.418182 220.152727 
L 210.418182 242.116364 
z
" clip-path="url(#p7b06dbb352)" style="fill: #ff0000"/>
   </g>
   <g id="patch_15">
    <path d="M 320.236364 242.116364 
L 320.236364 220.152727 
L 298.272727 220.152727 
L 298.272727 242.116364 
z
" clip-path="url(#p7b06dbb352)" style="fill: #ff0000"/>
   </g>
   <g id="patch_16">
    <path d="M 144.527273 132.298182 
L 144.527273 110.334545 
L 122.563636 110.334545 
L 122.563636 132.298182 
z
" clip-path="url(#p7b06dbb352)" style="fill: #ff0000"/>
   </g>
   <g id="patch_17">
    <path d="M 320.236364 132.298182 
L 320.236364 110.334545 
L 298.272727 110.334545 
L 298.272727 132.298182 
z
" clip-path="url(#p7b06dbb352)" style="fill: #ff0000"/>
   </g>
   <g id="patch_18">
    <path d="M 188.454545 66.407273 
L 188.454545 44.443636 
L 166.490909 44.443636 
L 166.490909 66.407273 
z
" clip-path="url(#p7b06dbb352)" style="fill: #ff0000"/>
   </g>
   <g id="patch_19">
    <path d="M 276.309091 66.407273 
L 276.309091 44.443636 
L 254.345455 44.443636 
L 254.345455 66.407273 
z
" clip-path="url(#p7b06dbb352)" style="fill: #ff0000"/>
   </g>
   <g id="LineCollection_1">
    <path d="M 122.563636 242.116364 
L 320.236364 242.116364 
" clip-path="url(#p7b06dbb352)" style="fill: none; stroke: #1f77b4; stroke-width: 1.5"/>
    <path d="M 122.563636 220.152727 
L 320.236364 220.152727 
" clip-path="url(#p7b06dbb352)" style="fill: none; stroke: #1f77b4; stroke-width: 1.5"/>
    <path d="M 122.563636 198.189091 
L 320.236364 198.189091 
" clip-path="url(#p7b06dbb352)" style="fill: none; stroke: #1f77b4; stroke-width: 1.5"/>
    <path d="M 122.563636 176.225455 
L 320.236364 176.225455 
" clip-path="url(#p7b06dbb352)" style="fill: none; stroke: #1f77b4; stroke-width: 1.5"/>
    <path d="M 122.563636 154.261818 
L 320.236364 154.261818 
" clip-path="url(#p7b06dbb352)" style="fill: none; stroke: #1f77b4; stroke-width: 1.5"/>
    <path d="M 122.563636 132.298182 
L 320.236364 132.298182 
" clip-path="url(#p7b06dbb352)" style="fill: none; stroke: #1f77b4; stroke-width: 1.5"/>
    <path d="M 122.563636 110.334545 
L 320.236364 110.334545 
" clip-path="url(#p7b06dbb352)" style="fill: none; stroke: #1f77b4; stroke-width: 1.5"/>
    <path d="M 122.563636 88.370909 
L 320.236364 88.370909 
" clip-path="url(#p7b06dbb352)" style="fill: none; stroke: #1f77b4; stroke-width: 1.5"/>
    <path d="M 122.563636 66.407273 
L 320.236364 66.407273 
" clip-path="url(#p7b06dbb352)" style="fill: none; stroke: #1f77b4; stroke-width: 1.5"/>
    <path d="M 122.563636 44.443636 
L 320.236364 44.443636 
" clip-path="url(#p7b06dbb352)" style="fill: none; stroke: #1f77b4; stroke-width: 1.5"/>
   </g>
   <g id="LineCollection_2">
    <path d="M 122.563636 242.116364 
L 122.563636 44.443636 
" clip-path="url(#p7b06dbb352)" style="fill: none; stroke: #1f77b4; stroke-width: 1.5"/>
    <path d="M 144.527273 242.116364 
L 144.527273 44.443636 
" clip-path="url(#p7b06dbb352)" style="fill: none; stroke: #1f77b4; stroke-width: 1.5"/>
    <path d="M 166.490909 242.116364 
L 166.490909 44.443636 
" clip-path="url(#p7b06dbb352)" style="fill: none; stroke: #1f77b4; stroke-width: 1.5"/>
    <path d="M 188.454545 242.116364 
L 188.454545 44.443636 
" clip-path="url(#p7b06dbb352)" style="fill: none; stroke: #1f77b4; stroke-width: 1.5"/>
    <path d="M 210.418182 242.116364 
L 210.418182 44.443636 
" clip-path="url(#p7b06dbb352)" style="fill: none; stroke: #1f77b4; stroke-width: 1.5"/>
    <path d="M 232.381818 242.116364 
L 232.381818 44.443636 
" clip-path="url(#p7b06dbb352)" style="fill: none; stroke: #1f77b4; stroke-width: 1.5"/>
    <path d="M 254.345455 242.116364 
L 254.345455 44.443636 
" clip-path="url(#p7b06dbb352)" style="fill: none; stroke: #1f77b4; stroke-width: 1.5"/>
    <path d="M 276.309091 242.116364 
L 276.309091 44.443636 
" clip-path="url(#p7b06dbb352)" style="fill: none; stroke: #1f77b4; stroke-width: 1.5"/>
    <path d="M 298.272727 242.116364 
L 298.272727 44.443636 
" clip-path="url(#p7b06dbb352)" style="fill: none; stroke: #1f77b4; stroke-width: 1.5"/>
    <path d="M 320.236364 242.116364 
L 320.236364 44.443636 
" clip-path="url(#p7b06dbb352)" style="fill: none; stroke: #1f77b4; stroke-width: 1.5"/>
   </g>
  </g>
 </g>
 <defs>
  <clipPath id="p7b06dbb352">
   <rect x="54" y="34.56" width="334.8" height="217.44"/>
  </clipPath>
 </defs>
</svg>
